<svg xmlns="http://www.w3.org/2000/svg" xmlns:xlink="http://www.w3.org/1999/xlink" xmlns:xodm="http://www.corel.com/coreldraw/odm/2003" xml:space="preserve" version="1.1" shape-rendering="geometricPrecision" text-rendering="geometricPrecision" image-rendering="optimizeQuality" fill-rule="evenodd" clip-rule="evenodd" viewBox="1508.58 10740.9 17968.58 8219.22">
 <g id="Camada_x0020_1">
  <metadata id="CorelCorpID_0Corel-Layer"/>
  <g id="_2555072592352">
   <polygon fill="#0E5762" points="1508.58,10740.94 2508.58,10740.94 3740.37,14687.5 3240.37,16289.46 "/>
   <polygon fill="#0E5762" points="5124.94,11212.62 3393.37,16760.44 4393.37,16760.44 5624.94,12814.58 "/>
   <polygon fill="#0E5762" points="5277.72,10740.94 6277.72,10740.94 7510.44,14690.48 7010.44,16292.44 "/>
   <polygon fill="#0E5762" points="8900.91,11196.7 7164.37,16760.44 8164.37,16760.44 8670.1,15140.12 10129.47,15141.16 9832.2,14186.37 8967.97,14185.76 9400.91,12798.66 "/>
   <rect fill="#0E5762" transform="matrix(0.984078 -0 0.312117 1 9058.66 10740.9)" width="1016.18" height="6019.5"/>
   <rect fill="#0E5762" transform="matrix(0.984078 -0 0.312117 1 14129.7 10740.9)" width="1016.18" height="6019.5"/>
   <rect fill="#0E5762" transform="matrix(0.984078 -0 0.312117 1 10361 10740.9)" width="1016.18" height="6019.5"/>
   <polygon fill="#0E5762" points="13228.85,15760.8 15396.26,15760.8 15708.26,16760.44 13540.85,16760.44 "/>
   <polygon fill="#0E5762" points="16997.75,15760.8 19165.16,15760.8 19477.16,16760.44 17309.75,16760.44 "/>
   <path fill="#0A8E9B" fill-rule="nonzero" d="M3190.62 18442.23c-52.51,41.27 -114.98,72.29 -187.74,93.33 -72.78,20.77 -153.77,31.29 -243.03,31.29 -112.92,0 -201.48,-18.08 -265.66,-54.22 -64.53,-36.15 -96.8,-86.05 -96.8,-149.97 0,-65.28 31.92,-119.5 96.11,-162.12 64.19,-42.88 145.88,-64.19 245.07,-64.19 61.78,0 124.6,8.63 188.79,25.62 64.19,17.26 127.69,42.62 190.84,76.34 24.03,-44.78 49.77,-101.69 76.55,-170.75 26.77,-69.32 58.35,-161.3 94.39,-275.94 -83.76,-8.9 -147.25,-27.78 -190.51,-56.64 -43.24,-28.59 -64.87,-66.63 -64.87,-113.56 0,-34.26 9.62,-61.77 29.18,-82.54 19.57,-21.04 45.31,-32.1 77.57,-33.72 7.22,41.27 27.46,73.64 60.08,97.92 32.94,24 80.65,40.46 142.79,49.36 40.16,-106.55 96.44,-188.01 168.87,-244.11 72.42,-56.38 156.52,-84.43 252.28,-84.43 74.15,0 131.46,14.03 171.28,41.81 39.82,28.05 59.73,67.97 59.73,119.49 0,79.3 -41.19,147.28 -123.92,203.92 -82.72,56.65 -193.24,92.25 -331.22,106.55 -30.21,124.08 -63.51,228.2 -99.89,312.62 -36.73,84.16 -81.35,160.5 -134.21,228.74 53.54,35.07 113.96,62.85 181.24,84.16 67.61,21.04 134.2,32.91 200.79,35.6l-38.1 106.82 -11.32 0c-82.39,0 -160.65,-9.98 -234.78,-30.21 -73.8,-19.96 -145.2,-50.44 -213.51,-91.17zm-166.81 -90.9c-42.91,-25.36 -89.93,-44.78 -141.42,-58.54 -51.14,-13.75 -101.59,-20.5 -151.36,-20.5 -49.44,0 -89.6,8.1 -120.48,24.01 -30.9,16.18 -46.35,37.22 -46.35,62.85 0,27.51 16.48,49.09 49.44,64.74 32.6,15.37 78.26,23.19 136.6,23.19 53.55,0 102.29,-7.55 146.23,-22.92 43.94,-15.38 86.49,-39.66 127.34,-72.83zm555.72 -705.1c73.79,-13.75 135.92,-39.38 186.03,-76.33 50.45,-37.22 75.51,-73.1 75.51,-107.9 0,-15.91 -5.83,-28.32 -17.5,-37.22 -11.67,-8.9 -27.8,-13.49 -47.72,-13.49 -40.49,0 -77.23,20.23 -111.2,60.96 -33.98,40.46 -62.13,98.46 -85.12,173.98zm566 671.38c69.67,-35.88 128.37,-84.16 175.74,-145.12 47.72,-60.69 71.4,-113.83 71.4,-159.14 0,-22.66 -6.87,-39.92 -20.95,-51.79 -14.07,-11.87 -34.66,-17.81 -61.43,-17.81 -55.61,0 -105.04,25.63 -147.95,77.15 -42.89,51.25 -64.18,110.86 -64.18,178.83 0,25.9 3.78,48.29 10.99,66.9 7.55,18.61 19.56,35.6 36.38,50.98zm-103.66 166.97c-64.87,24.27 -130.09,42.88 -195.3,56.1 -65.56,13.22 -131.12,20.77 -197.71,22.93l40.5 -106.82c45.99,-2.69 88.9,-7.55 128.03,-15.1 39.13,-7.28 77.23,-17.27 113.95,-29.94 -25.4,-26.44 -43.92,-56.38 -55.95,-90.09 -12.01,-33.72 -18.18,-73.37 -18.18,-118.69 0,-105.2 45.64,-196.91 137.29,-274.86 91.64,-77.95 199.77,-117.07 324.36,-117.07 69.69,0 124.95,16.46 165.46,49.37 40.5,32.9 60.74,77.95 60.74,134.86 0,62.04 -29.17,130.83 -87.18,205.81 -58.01,74.99 -135.24,141.34 -232.03,198.8 28.14,20.5 58.69,35.06 91.99,43.97 33.29,8.63 74.14,12.94 122.53,12.94l14.08 0 -39.47 106.82 -27.47 0c-74.82,0 -141.07,-6.47 -197.71,-19.42 -56.97,-12.95 -106.4,-32.91 -147.93,-59.61zm1347.92 -506.84c-18.2,-11.06 -36.04,-19.15 -53.89,-24.55 -17.84,-5.12 -35.7,-7.82 -53.89,-7.82 -39.82,0 -85.12,13.49 -136.61,40.46 -51.14,26.71 -100.24,63.39 -147.26,109.79 -42.9,42.61 -77.22,87.93 -102.28,135.67 -25.06,47.75 -37.76,89.56 -37.76,125.43 0,25.63 5.83,44.78 17.17,57.19 11.33,12.4 28.82,18.61 52.17,18.61 65.89,0 137.98,-38.58 216.59,-115.45 78.6,-76.88 160.29,-190.16 245.76,-339.33zm-102.63 299.68c-71.75,100.34 -142.79,173.44 -213.16,219.83 -70.36,46.4 -145.88,69.6 -226.53,69.6 -38.1,0 -71.41,-4.32 -99.9,-12.68 -28.49,-8.36 -50.8,-20.77 -66.93,-37.23 -33.63,14.3 -71.73,25.09 -114.64,32.91 -42.9,7.55 -93.37,12.14 -151.02,13.76l40.5 -106.82c36.72,-1.62 69.67,-5.12 98.85,-11.06 29.18,-5.66 55.61,-13.75 78.95,-24.27 -2.41,-11.06 -4.47,-22.66 -5.83,-34.53 -1.38,-11.6 -2.06,-24.54 -2.06,-38.3 0,-43.7 12.01,-91.44 36.03,-143.5 24.37,-51.79 58.01,-102.77 101.6,-152.94 67.28,-75.8 141.42,-133.52 222.77,-173.44 81.69,-39.65 165.78,-59.61 252.97,-59.61 43.59,0 81,5.12 112.58,15.1 31.59,9.98 61.44,25.9 89.59,48.01l14.07 -35.6c8.58,-21.85 17.51,-35.61 26.09,-41.27 8.58,-5.94 21.28,-8.9 38.1,-8.9 46.34,0 86.84,6.2 121.17,18.61 34.66,12.68 51.83,27.24 51.83,44.24 0,5.39 -14.42,29.94 -43.25,74.17 -28.84,44.51 -54.24,86.59 -76.2,126.51 -44.29,79.57 -77.58,147.82 -100.23,204.46 -22.32,56.65 -33.64,100.07 -33.64,130.55 0,21.31 8.24,35.88 25.05,43.97 16.83,8.09 54.93,14.3 114.66,18.61l-39.13 106.01 -18.2 0c-105.03,0 -179.17,-8.63 -222.08,-26.17 -42.91,-17.26 -64.18,-46.93 -64.18,-88.47 0,-18.34 4.12,-41 12.01,-67.97 8.23,-26.71 21.62,-61.23 40.16,-103.58zm524.48 236.29c-34.66,15.37 -74.82,26.97 -119.45,35.33 -44.96,8.1 -96.12,12.95 -153.09,14.57l40.17 -106.82c37.06,-1.62 70.01,-5.39 99.19,-11.06 29.18,-5.93 55.61,-14.29 78.94,-24.81 -5.49,-17 -9.26,-32.1 -12.01,-45.86 -2.75,-13.75 -4.12,-26.43 -4.12,-38.03 0,-45.59 13.39,-103.85 40.16,-174.52 26.77,-70.67 64.19,-145.12 111.9,-223.61l13.05 -20.5c46.33,-76.88 89.58,-115.45 129.74,-115.45 42.9,0 82.03,7.55 116.71,22.93 35,15.37 52.51,32.37 52.51,51.52 0,7.82 -13.73,32.1 -40.84,73.1 -27.12,40.73 -50.12,76.87 -69,107.89 -43.6,74.72 -76.54,138.65 -98.51,191.52 -22.32,52.86 -33.3,94.94 -33.3,125.96 0,19.42 6.87,35.34 20.26,47.75 13.39,12.4 30.88,18.61 52.17,18.61 56.63,0 120.47,-37.77 191.53,-113.29 71.06,-75.53 122.54,-165.62 154.12,-270.55 -32.95,-2.7 -58.35,-12.95 -76.2,-31.02 -17.86,-18.34 -26.78,-43.43 -26.78,-75.52 0,-38.58 13.73,-70.14 41.19,-95.22 27.47,-25.09 62.82,-37.49 105.73,-37.49 46.67,0 83.05,12.13 108.8,36.41 25.74,24.28 38.78,57.99 38.78,101.15 0,53.14 -19.21,116.8 -57.31,191.24 -38.1,74.18 -90.62,148.36 -156.87,222 -61.78,68.51 -122.54,118.41 -182.26,149.97 -59.73,31.29 -123.57,46.94 -192.21,46.94 -40.16,0 -75.53,-4.86 -106.41,-14.3 -30.9,-9.44 -53.2,-22.39 -66.59,-38.84zm1138.2 -196.1c69.67,-35.88 128.37,-84.16 175.74,-145.12 47.72,-60.69 71.4,-113.83 71.4,-159.14 0,-22.66 -6.87,-39.92 -20.95,-51.79 -14.07,-11.87 -34.66,-17.81 -61.43,-17.81 -55.61,0 -105.04,25.63 -147.95,77.15 -42.89,51.25 -64.18,110.86 -64.18,178.83 0,25.9 3.78,48.29 10.99,66.9 7.55,18.61 19.56,35.6 36.38,50.98zm-103.66 166.97c-64.87,24.27 -130.09,42.88 -195.3,56.1 -65.56,13.22 -131.12,20.77 -197.71,22.93l40.5 -106.82c45.99,-2.69 88.9,-7.55 128.03,-15.1 39.13,-7.28 77.23,-17.27 113.95,-29.94 -25.4,-26.44 -43.93,-56.38 -55.95,-90.09 -12.01,-33.72 -18.18,-73.37 -18.18,-118.69 0,-105.2 45.64,-196.91 137.29,-274.86 91.64,-77.95 199.77,-117.07 324.36,-117.07 69.68,0 124.95,16.46 165.45,49.37 40.51,32.9 60.75,77.95 60.75,134.86 0,62.04 -29.17,130.83 -87.18,205.81 -58.01,74.99 -135.24,141.34 -232.03,198.8 28.14,20.5 58.69,35.06 91.99,43.97 33.29,8.63 74.14,12.94 122.53,12.94l14.08 0 -39.47 106.82 -27.47 0c-74.82,0 -141.07,-6.47 -197.71,-19.42 -56.97,-12.95 -106.4,-32.91 -147.93,-59.61zm1891.96 -506.84c-18.2,-11.06 -36.04,-19.15 -53.9,-24.55 -17.84,-5.12 -35.69,-7.82 -53.89,-7.82 -39.81,0 -85.11,13.49 -136.6,40.46 -51.14,26.71 -100.24,63.39 -147.26,109.79 -42.91,42.61 -77.23,87.93 -102.28,135.67 -25.06,47.75 -37.76,89.56 -37.76,125.43 0,25.63 5.83,44.78 17.17,57.19 11.32,12.4 28.82,18.61 52.17,18.61 65.89,0 137.98,-38.58 216.58,-115.45 78.61,-76.88 160.3,-190.16 245.77,-339.33zm-102.63 299.68c-71.75,100.34 -142.79,173.44 -213.16,219.83 -70.36,46.4 -145.88,69.6 -226.54,69.6 -38.09,0 -71.4,-4.32 -99.89,-12.68 -28.49,-8.36 -50.8,-20.77 -66.93,-37.23 -33.63,14.3 -71.73,25.09 -114.64,32.91 -42.9,7.55 -93.37,12.14 -151.03,13.76l40.51 -106.82c36.72,-1.62 69.67,-5.12 98.85,-11.06 29.18,-5.66 55.61,-13.75 78.94,-24.27 -2.4,-11.06 -4.46,-22.66 -5.82,-34.53 -1.38,-11.6 -2.07,-24.54 -2.07,-38.3 0,-43.7 12.02,-91.44 36.04,-143.5 24.37,-51.79 58,-102.77 101.6,-152.94 67.28,-75.8 141.42,-133.52 222.77,-173.44 81.69,-39.65 165.78,-59.61 252.97,-59.61 43.59,0 81,5.12 112.58,15.1 31.59,9.98 61.44,25.9 89.59,48.01l14.07 -35.6c8.58,-21.85 17.51,-35.61 26.09,-41.27 8.58,-5.94 21.28,-8.9 38.1,-8.9 46.34,0 86.83,6.2 121.17,18.61 34.66,12.68 51.83,27.24 51.83,44.24 0,5.39 -14.42,29.94 -43.26,74.17 -28.83,44.51 -54.23,86.59 -76.19,126.51 -44.29,79.57 -77.58,147.82 -100.23,204.46 -22.32,56.65 -33.64,100.07 -33.64,130.55 0,21.31 8.24,35.88 25.05,43.97 16.83,8.09 54.92,14.3 114.66,18.61l-39.13 106.01 -18.2 0c-105.03,0 -179.17,-8.63 -222.08,-26.17 -42.91,-17.26 -64.19,-46.93 -64.19,-88.47 0,-18.34 4.13,-41 12.02,-67.97 8.23,-26.71 21.62,-61.23 40.16,-103.58zm1435.1 -356.59c-11.66,18.34 -26.77,32.36 -46,41.54 -19.21,9.17 -41.86,13.75 -67.95,13.75 -52.52,0 -93.02,-16.72 -121.51,-49.9 -28.49,-33.18 -42.91,-80.92 -42.91,-142.96 0,-125.97 49.77,-234.13 149.32,-324.22 99.53,-90.09 218.98,-135.14 358.34,-135.14 96.11,0 170.93,18.61 224.82,56.1 53.9,37.5 81.01,89.29 81.01,155.91 0,36.15 -8.24,83.62 -25.05,142.15 -16.83,58.54 -43.6,133.25 -80.32,223.88 151.02,-211.47 277.68,-359.28 380.66,-443.44 102.63,-84.43 203.88,-126.51 303.76,-126.51 59.73,0 106.06,14.84 139.37,44.24 33.28,29.4 49.76,70.94 49.76,124.08 0,65.81 -52.51,189.89 -157.89,372.23l-23.34 38.85c174.71,-210.94 321.62,-361.45 440.72,-451.81 118.77,-90.37 227.91,-135.68 327.12,-135.68 54.92,0 99.88,14.57 134.88,43.97 35.37,29.13 52.87,66.62 52.87,112.48 0,65.54 -56.29,203.11 -168.54,412.69l-27.11 50.71 -16.13 30.75c-112.93,212.02 -169.22,337.44 -169.22,376.56 0,35.87 15.44,62.04 46.34,78.49 30.89,16.45 81.35,25.62 151.02,27.24l-39.13 106.82 -29.85 0c-132.84,0 -229.99,-17.26 -290.74,-51.79 -60.75,-34.53 -90.96,-89.01 -90.96,-163.19 0,-65.28 66.59,-220.11 200.12,-463.95 28.15,-51.25 49.77,-90.63 65.22,-118.68l10.29 -18.07c59.38,-109.79 88.9,-177.22 88.9,-202.58 0,-11.6 -4.81,-21.31 -14.08,-29.67 -9.26,-8.09 -20.58,-12.14 -33.28,-12.14 -51.49,0 -147.26,66.36 -286.96,198.8 -140.05,132.44 -266.02,287.54 -377.91,465.03 -35.36,54.75 -69.34,110.86 -101.94,168.58 -32.61,57.72 -63.17,116.26 -91.99,175.87 -11.67,24.01 -25.74,39.11 -42.91,45.58 -17.17,6.21 -44.97,9.45 -83.07,9.45 -57.66,0 -100.22,-3.78 -127.68,-11.6 -27.81,-7.56 -41.54,-19.15 -41.54,-35.07 0,-8.9 25.06,-56.91 74.49,-143.23 39.13,-69.32 71.39,-126.78 96.79,-172.63 94.05,-169.66 167.16,-310.47 220.02,-422.68 52.52,-111.94 78.95,-183.15 78.95,-213.09 0,-16.45 -6.17,-29.94 -18.19,-40.73 -12.01,-10.79 -27.11,-16.18 -45.31,-16.18 -64.19,0 -153.43,58.8 -267.38,176.4 -113.97,117.88 -224.83,268.12 -331.93,451.54 -40.16,69.06 -80.66,146.2 -120.82,230.9 -40.16,84.96 -63.16,132.71 -69.33,143.23 -13.39,24.27 -27.8,39.38 -43.25,44.77 -15.11,5.67 -46,8.37 -92.34,8.37 -47.36,0 -84.43,-4.05 -110.51,-11.87 -26.09,-7.82 -39.13,-18.88 -39.13,-33.18 0,-14.84 24.71,-68.78 74.48,-162.38 49.42,-93.33 90.27,-173.71 122.53,-241.15 52.86,-107.89 95.08,-209.85 126.32,-305.61 31.23,-95.75 46.68,-165.89 46.68,-210.12 0,-36.15 -11.33,-64.2 -33.64,-83.89 -22.66,-19.69 -54.57,-29.67 -96.11,-29.67 -69.68,0 -129.75,27.78 -179.86,83.35 -50.45,55.56 -75.51,121.65 -75.51,198.52 0,32.64 6.86,62.58 20.59,89.56 13.73,27.24 32.27,47.2 55.95,60.42zm2351.58 396.78c69.67,-35.88 128.37,-84.16 175.73,-145.12 47.72,-60.69 71.4,-113.83 71.4,-159.14 0,-22.66 -6.87,-39.92 -20.94,-51.79 -14.08,-11.87 -34.67,-17.81 -61.44,-17.81 -55.61,0 -105.03,25.63 -147.94,77.15 -42.9,51.25 -64.19,110.86 -64.19,178.83 0,25.9 3.78,48.29 11,66.9 7.54,18.61 19.55,35.6 36.38,50.98zm-103.66 166.97c-64.87,24.27 -130.09,42.88 -195.31,56.1 -65.56,13.22 -131.12,20.77 -197.71,22.93l40.51 -106.82c45.98,-2.69 88.89,-7.55 128.02,-15.1 39.13,-7.28 77.23,-17.27 113.96,-29.94 -25.4,-26.44 -43.93,-56.38 -55.96,-90.09 -12.01,-33.72 -18.18,-73.37 -18.18,-118.69 0,-105.2 45.65,-196.91 137.29,-274.86 91.65,-77.95 199.77,-117.07 324.37,-117.07 69.68,0 124.95,16.46 165.45,49.37 40.5,32.9 60.75,77.95 60.75,134.86 0,62.04 -29.18,130.83 -87.18,205.81 -58.01,74.99 -135.24,141.34 -232.03,198.8 28.13,20.5 58.69,35.06 91.99,43.97 33.29,8.63 74.14,12.94 122.53,12.94l14.07 0 -39.47 106.82 -27.46 0c-74.82,0 -141.07,-6.47 -197.71,-19.42 -56.97,-12.95 -106.41,-32.91 -147.93,-59.61zm772.98 -120.31c25.4,7.29 47.37,18.89 65.9,34.53 18.54,15.37 33.3,34.8 44.97,57.99 62.81,-9.98 112.58,-35.06 148.27,-74.98 36.05,-40.19 53.9,-90.9 53.9,-151.87 0,-23.73 -3.1,-49.09 -8.93,-75.52 -6.18,-26.71 -15.44,-56.38 -28.49,-89.01 -26.08,45.31 -62.81,93.86 -110.53,145.38 -47.7,51.79 -102.63,102.77 -165.09,153.48zm-399.54 199.34l38.1 -106.82c64.53,-6.2 148.62,-54.21 252.29,-143.5 103.66,-89.28 211.43,-208.5 323.68,-357.13 -13.73,-10.52 -23.01,-21.85 -28.84,-34.25 -5.84,-12.41 -8.57,-26.71 -8.57,-43.16 0,-41 20.24,-76.34 60.4,-106.01 40.16,-29.4 88.56,-44.24 144.85,-44.24 33.64,0 60.41,7.02 79.98,21.04 19.9,13.76 29.86,32.64 29.86,56.38 0,22.12 -8.24,44.51 -25.06,67.16 -16.81,22.93 -41.87,45.32 -75.51,67.44 58.7,51.52 101.25,99.26 127.34,142.69 26.09,43.43 39.13,88.2 39.13,134.06 0,41.54 -9.26,82 -27.46,121.38 -18.53,39.11 -43.59,72.29 -75.51,99.26 15.1,6.21 32.96,11.06 52.86,14.03 20.26,3.23 44.28,4.85 72.43,4.85l20.93 0 -39.13 106.82 -29.18 0c-37.41,0 -73.1,-2.97 -107.44,-8.63 -34.32,-5.94 -68.29,-14.84 -102.62,-26.98 -40.84,13.22 -80.31,22.93 -118.08,29.4 -38.1,6.21 -73.45,9.45 -106.4,9.45 -52.17,0 -101.95,-6.75 -148.97,-20.23 -46.68,-13.49 -85.81,-32.1 -116.7,-55.84 -32.27,19.42 -67.62,35.34 -106.75,47.47 -38.79,12.14 -80.67,20.5 -125.63,25.36zm1360.96 -199.34c25.4,7.29 47.38,18.89 65.9,34.53 18.54,15.37 33.31,34.8 44.98,57.99 62.81,-9.98 112.57,-35.06 148.27,-74.98 36.05,-40.19 53.89,-90.9 53.89,-151.87 0,-23.73 -3.09,-49.09 -8.92,-75.52 -6.18,-26.71 -15.45,-56.38 -28.49,-89.01 -26.09,45.31 -62.81,93.86 -110.53,145.38 -47.71,51.79 -102.63,102.77 -165.1,153.48zm-399.53 199.34l38.1 -106.82c64.53,-6.2 148.61,-54.21 252.29,-143.5 103.66,-89.28 211.43,-208.5 323.67,-357.13 -13.73,-10.52 -23,-21.85 -28.83,-34.25 -5.84,-12.41 -8.58,-26.71 -8.58,-43.16 0,-41 20.25,-76.34 60.41,-106.01 40.16,-29.4 88.55,-44.24 144.85,-44.24 33.63,0 60.41,7.02 79.98,21.04 19.9,13.76 29.85,32.64 29.85,56.38 0,22.12 -8.23,44.51 -25.06,67.16 -16.81,22.93 -41.86,45.32 -75.51,67.44 58.7,51.52 101.26,99.26 127.34,142.69 26.09,43.43 39.13,88.2 39.13,134.06 0,41.54 -9.26,82 -27.46,121.38 -18.52,39.11 -43.58,72.29 -75.51,99.26 15.11,6.21 32.96,11.06 52.86,14.03 20.26,3.23 44.29,4.85 72.43,4.85l20.94 0 -39.13 106.82 -29.18 0c-37.41,0 -73.11,-2.97 -107.44,-8.63 -34.32,-5.94 -68.3,-14.84 -102.63,-26.98 -40.83,13.22 -80.31,22.93 -118.08,29.4 -38.1,6.21 -73.45,9.45 -106.39,9.45 -52.17,0 -101.96,-6.75 -148.97,-20.23 -46.68,-13.49 -85.81,-32.1 -116.71,-55.84 -32.27,19.42 -67.62,35.34 -106.75,47.47 -38.78,12.14 -80.66,20.5 -125.62,25.36zm1935.89 -585.87c-18.2,-11.06 -36.04,-19.15 -53.89,-24.55 -17.84,-5.12 -35.69,-7.82 -53.89,-7.82 -39.82,0 -85.12,13.49 -136.61,40.46 -51.14,26.71 -100.23,63.39 -147.25,109.79 -42.91,42.61 -77.23,87.93 -102.29,135.67 -25.05,47.75 -37.75,89.56 -37.75,125.43 0,25.63 5.83,44.78 17.16,57.19 11.33,12.4 28.83,18.61 52.18,18.61 65.89,0 137.98,-38.58 216.58,-115.45 78.6,-76.88 160.3,-190.16 245.76,-339.33zm-102.63 299.68c-71.74,100.34 -142.79,173.44 -213.16,219.83 -70.35,46.4 -145.88,69.6 -226.53,69.6 -38.1,0 -71.4,-4.32 -99.89,-12.68 -28.49,-8.36 -50.8,-20.77 -66.94,-37.23 -33.63,14.3 -71.73,25.09 -114.64,32.91 -42.89,7.55 -93.36,12.14 -151.02,13.76l40.5 -106.82c36.73,-1.62 69.67,-5.12 98.85,-11.06 29.18,-5.66 55.61,-13.75 78.95,-24.27 -2.4,-11.06 -4.47,-22.66 -5.83,-34.53 -1.37,-11.6 -2.06,-24.54 -2.06,-38.3 0,-43.7 12.01,-91.44 36.04,-143.5 24.37,-51.79 58,-102.77 101.6,-152.94 67.27,-75.8 141.41,-133.52 222.76,-173.44 81.7,-39.65 165.79,-59.61 252.98,-59.61 43.58,0 80.99,5.12 112.58,15.1 31.58,9.98 61.44,25.9 89.58,48.01l14.08 -35.6c8.57,-21.85 17.51,-35.61 26.08,-41.27 8.58,-5.94 21.28,-8.9 38.1,-8.9 46.35,0 86.84,6.2 121.17,18.61 34.67,12.68 51.83,27.24 51.83,44.24 0,5.39 -14.42,29.94 -43.25,74.17 -28.84,44.51 -54.24,86.59 -76.2,126.51 -44.28,79.57 -77.57,147.82 -100.22,204.46 -22.32,56.65 -33.65,100.07 -33.65,130.55 0,21.31 8.25,35.88 25.06,43.97 16.82,8.09 54.92,14.3 114.65,18.61l-39.13 106.01 -18.19 0c-105.04,0 -179.18,-8.63 -222.08,-26.17 -42.91,-17.26 -64.19,-46.93 -64.19,-88.47 0,-18.34 4.12,-41 12.01,-67.97 8.24,-26.71 21.62,-61.23 40.16,-103.58zm1123.79 0c-71.75,100.34 -142.79,173.44 -213.16,219.83 -70.36,46.4 -145.88,69.6 -226.19,69.6 -38.1,0 -71.4,-4.32 -99.89,-12.68 -28.5,-8.36 -50.8,-20.77 -66.94,-37.23 -33.63,14.3 -71.73,25.09 -114.64,32.91 -42.9,7.55 -93.36,12.14 -151.02,13.76l40.5 -106.82c36.73,-1.62 69.67,-5.12 98.85,-11.06 29.18,-5.66 55.61,-13.75 78.95,-24.27 -2.41,-11.06 -4.47,-22.66 -5.83,-34.53 -1.37,-11.6 -2.06,-24.54 -2.06,-38.3 0,-43.7 12.01,-91.44 36.04,-143.5 24.37,-51.79 58,-102.77 101.59,-152.94 67.97,-75.8 141.76,-133.52 222.43,-173.44 80.32,-39.65 164.06,-59.61 251.26,-59.61 43.58,0 81.69,5.12 114.64,15.64 32.94,10.52 64.87,27.51 95.42,50.71 8.92,-35.6 20.25,-57.99 34.32,-67.97 14.08,-9.71 48.05,-14.57 101.6,-14.57 45.66,0 77.23,3.24 95.08,9.98 17.86,6.48 26.78,17.8 26.78,33.45 0,7.55 -1.38,15.64 -4.47,24.55 -3.09,9.17 -9.61,24 -19.56,45.31l-295.2 561.86c20.95,-5.66 55.27,-10.25 103.32,-12.94 48.06,-2.97 82.73,-5.67 104.35,-8.37l-36.39 106.82 -13.04 1.62c-97.82,7.28 -167.16,16.72 -207.32,27.78 -72.42,137.84 -136.95,233.59 -193.24,287 -56.3,53.41 -117.73,80.11 -183.98,80.11 -42.91,0 -75.86,-8.36 -99.19,-25.35 -23.01,-16.73 -34.68,-40.73 -34.68,-71.75 0,-45.32 21.98,-87.13 65.9,-125.16 43.94,-38.3 112.94,-75.8 207.66,-112.48 32.96,-53.41 64.88,-108.71 96.12,-166.16 31.24,-57.45 61.78,-117.87 91.99,-181.8zm102.63 -299.68c-18.2,-11.06 -36.04,-19.15 -53.89,-24.55 -17.5,-5.12 -35.7,-7.82 -53.9,-7.82 -39.47,0 -84.77,13.49 -136.26,40.46 -51.14,26.71 -100.56,63.39 -147.25,109.79 -43.26,42.61 -77.23,87.93 -102.29,135.67 -25.05,47.75 -37.75,89.56 -37.75,125.43 0,25.63 5.83,44.78 17.16,57.19 11.33,12.4 28.83,18.61 52.18,18.61 65.89,0 137.98,-38.58 216.58,-115.45 78.26,-76.88 160.3,-190.16 245.42,-339.33zm663.49 339.87c69.67,-35.88 128.37,-84.16 175.73,-145.12 47.72,-60.69 71.4,-113.83 71.4,-159.14 0,-22.66 -6.87,-39.92 -20.94,-51.79 -14.08,-11.87 -34.67,-17.81 -61.44,-17.81 -55.61,0 -105.03,25.63 -147.94,77.15 -42.9,51.25 -64.19,110.86 -64.19,178.83 0,25.9 3.78,48.29 11,66.9 7.54,18.61 19.55,35.6 36.38,50.98zm-103.66 166.97c-64.88,24.27 -130.09,42.88 -195.31,56.1 -65.56,13.22 -131.12,20.77 -197.71,22.93l40.51 -106.82c45.98,-2.69 88.89,-7.55 128.02,-15.1 39.13,-7.28 77.23,-17.27 113.96,-29.94 -25.4,-26.44 -43.93,-56.38 -55.96,-90.09 -12.01,-33.72 -18.18,-73.37 -18.18,-118.69 0,-105.2 45.65,-196.91 137.29,-274.86 91.65,-77.95 199.77,-117.07 324.37,-117.07 69.68,0 124.95,16.46 165.45,49.37 40.5,32.9 60.75,77.95 60.75,134.86 0,62.04 -29.18,130.83 -87.18,205.81 -58.01,74.99 -135.24,141.34 -232.03,198.8 28.13,20.5 58.69,35.06 91.99,43.97 33.29,8.63 74.14,12.94 122.53,12.94l14.07 0 -39.47 106.82 -27.46 0c-74.83,0 -141.07,-6.47 -197.71,-19.42 -56.97,-12.95 -106.41,-32.91 -147.93,-59.61zm908.91 -327.19c-12.7,25.08 -24.03,42.07 -34.68,50.44 -10.29,8.36 -25.06,12.67 -43.58,12.67 -29.18,0 -53.21,-5.12 -72.09,-15.1 -19.22,-9.98 -28.84,-22.66 -28.84,-37.76 0,-7.02 0.69,-14.84 2.41,-23.47 1.72,-8.63 5.15,-19.96 9.62,-33.45l220.7 -667.6c11.33,-35.6 23.68,-59.07 37.07,-70.13 13.39,-11.06 32.6,-16.72 57.32,-16.72 42.22,0 85.47,9.44 129.74,28.05 44.29,18.61 66.25,38.84 66.25,60.42 0,9.98 -1.72,21.04 -5.49,33.18 -3.77,12.14 -9.62,25.35 -17.51,39.65l-320.92 639.82zm-201.84 186.11c38.1,0 68.31,9.17 90.27,27.25 22.32,18.34 33.31,43.16 33.31,74.98 0,36.42 -13.39,65.55 -40.16,87.94 -26.78,22.12 -62.13,33.18 -106.41,33.18 -40.85,0 -72.76,-8.91 -96.46,-26.98 -23.34,-17.8 -35.01,-42.89 -35.01,-75.25 0,-37.5 13.73,-66.9 41.2,-88.75 27.46,-21.58 65.21,-32.37 113.26,-32.37z"/>
  </g>
 </g>
</svg>